<svg id="icons" enable-background="new 0 0 64 64" height="512" viewBox="0 0 64 64" width="512" xmlns="http://www.w3.org/2000/svg"><path d="m27 36.015h-14c-1.93 0-3.5 1.57-3.5 3.5s1.57 3.5 3.5 3.5h37.97c.035.005.125.015.16.016 2.409.068 4.37 2.084 4.37 4.492 0 2.466-1.994 4.475-4.454 4.5-.039-.004-.083-.007-.113-.007h-15.933c-1.93 0-3.5 1.57-3.5 3.5v7.492c0 .553.447 1 1 1s1-.447 1-1v-7.492c0-.827.673-1.5 1.5-1.5h15.881c.042.004.088.007.119.007 3.584 0 6.5-2.916 6.5-6.5 0-3.479-2.832-6.392-6.265-6.49-.077-.01-.154-.018-.234-.018h-38.001c-.827 0-1.5-.673-1.5-1.5s.673-1.5 1.5-1.5h14c3.584 0 6.5-2.916 6.5-6.5v-7.87c3.467-1.072 5.992-4.308 5.992-8.121 0-.012-.006-.022-.007-.034v-1.681c1.161-.414 2-1.514 2-2.815 0-1.654-1.346-3-3-3-.007 0-.013.004-.02.004h-.979v-5.506c0-1.379-1.121-2.5-2.5-2.5s-2.5 1.121-2.5 2.5v5.505h-3.001v-5.505c0-1.379-1.121-2.5-2.5-2.5s-2.5 1.121-2.5 2.5v5.505h-1.02c-.005 0-.01.003-.016.003-1.639.019-2.967 1.354-2.967 2.997 0 1.304.841 2.404 2.005 2.817l.012 1.677c-.001.011-.007.021-.007.032 0 3.819 2.533 7.058 6.008 8.126v7.865c0 .827-.673 1.5-1.5 1.5h-14.002c-3.583.001-6.498 2.917-6.498 6.5 0 3.584 2.916 6.5 6.5 6.5h37.87c.045.004.097.008.13.008.827 0 1.5.673 1.5 1.5 0 .804-.647 1.469-1.437 1.495-.022-.001-.045-.002-.063-.002h-16c-3.584 0-6.5 2.916-6.5 6.5v7.492c0 .553.447 1 1 1s1-.447 1-1v-7.492c0-2.481 2.019-4.5 4.5-4.5h15.96c.03.002.06.002.088.003 1.903-.026 3.452-1.595 3.452-3.496 0-1.912-1.542-3.472-3.447-3.5-.045-.004-.096-.008-.13-.008h-37.923c-2.481 0-4.5-2.019-4.5-4.5 0-2.48 2.019-4.499 4.499-4.5h14.001c1.93 0 3.5-1.57 3.5-3.5v-7.517c.164.01.326.025.492.025.172 0 .339-.016.508-.025v7.517c0 2.482-2.019 4.501-4.5 4.501zm-3.459-24.006c-.021-.001-.038-.012-.059-.012-.552 0-1-.448-1-1s.448-1 1-1h15.02.001c.544.01.982.45.982.996 0 .552-.448 1-1 1-.027 0-.051.014-.077.016zm10.945-9.517c0-.275.225-.5.5-.5s.5.225.5.5v5.505h-1zm-8.001 0c0-.275.225-.5.5-.5s.5.225.5.5v5.505h-1zm-1.992 13.054c.001-.011.006-.019.006-.029l-.01-1.508h12.996v1.515c0 .01.005.018.006.027-.015 3.571-2.924 6.473-6.499 6.473-3.576-.001-6.486-2.905-6.499-6.478z"/></svg>